<svg xmlns="http://www.w3.org/2000/svg" version="1.1" xmlns:xlink="http://www.w3.org/1999/xlink" xmlns:svgjs="http://svgjs.dev/svgjs" width="1000" height="750" viewBox="0 0 1000 750"><rect width="1000" height="750" fill="#ffffff"></rect><g transform="matrix(0.5191111111111111,0,0,0.5191111111111111,240.44444444444446,83)"><svg viewBox="0 0 320 360" data-background-color="#ffffff" preserveAspectRatio="xMidYMid meet" height="1125" width="1000" xmlns="http://www.w3.org/2000/svg" xmlns:xlink="http://www.w3.org/1999/xlink"><g id="tight-bounds" transform="matrix(1,0,0,1,0,0)"><svg viewBox="0 0 320 360" height="360" width="320"><g><svg></svg></g><g><svg viewBox="0 0 320 360" height="360" width="320"><g><path d="M320 141.95l-19.957-19.957v-28.224l-53.812-53.812h-28.223l-19.958-19.957h-76.1l-19.957 19.957h-28.224l-53.812 53.812v28.224l-19.957 19.957v76.104l19.957 19.958v28.223l53.816 53.808h28.224l19.957 19.957h76.104l19.958-19.957h28.223l53.812-53.812v-28.224l19.949-19.957zM244.374 44.437l51.189 51.189v21.887l-73.076-73.076zM295.563 123.849v112.306l-79.408 79.408h-112.306l-79.412-79.412v-112.302l79.412-79.412h112.306zM123.807 24.48h72.39l15.478 15.477h-103.346zM24.437 95.626l51.189-51.189h21.887l-73.076 73.076zM4.484 216.197v-72.394l15.477-15.478v103.342zM75.626 315.563l-51.189-51.189v-21.887l73.076 73.076zM196.197 335.52h-72.39l-15.478-15.477h103.342zM295.563 264.374l-51.189 51.189h-21.887l73.076-73.076zM315.52 216.197l-15.477 15.478v-103.346l15.477 15.478z" fill="#233565" fill-rule="nonzero" stroke="none" stroke-width="1" stroke-linecap="butt" stroke-linejoin="miter" stroke-miterlimit="10" stroke-dasharray="" stroke-dashoffset="0" font-family="none" font-weight="none" font-size="none" text-anchor="none" style="mix-blend-mode: normal" data-fill-palette-color="tertiary"></path></g><g transform="matrix(1,0,0,1,56,134.81346678798909)"><svg viewBox="0 0 208 90.37306642402184" height="90.37306642402184" width="208"><g><svg viewBox="0 0 208 90.37306642402184" height="90.37306642402184" width="208"><g><svg viewBox="0 0 208 90.37306642402184" height="90.37306642402184" width="208"><g id="textblocktransform"><svg viewBox="0 0 208 90.37306642402184" height="90.37306642402184" width="208" id="textblock"><g><svg viewBox="0 0 208 90.37306642402184" height="90.37306642402184" width="208"><g transform="matrix(1,0,0,1,0,0)"><svg width="208" viewBox="2 -36.05 109.89 47.75" height="90.37306642402184" data-palette-color="#233565"><path d="M25.4-34.5L26.2-24.55 25.8-24.5 22.8-32.05Q22.35-33.2 21.83-33.55 21.3-33.9 20.1-33.9L20.1-33.9 9.95-33.9 9.95-18.55 17.2-18.55Q18.4-18.55 18.9-18.95 19.4-19.35 19.6-20.5L19.6-20.5 20.45-24.55 21.05-24.55 21.05-11.75 20.45-11.75 19.6-15.8Q19.4-16.95 18.9-17.35 18.4-17.75 17.2-17.75L17.2-17.75 9.95-17.75 9.95-0.8 14.85-0.4 14.85 0 2 0 2-0.4 6.1-0.8 6.1-33.7 2-34.1 2-34.5 25.4-34.5ZM43.7-5.1L44.15-5.7 44.35-5.6 44.15-5.05Q43.15-2.4 41.17-0.95 39.2 0.5 36.45 0.5L36.45 0.5Q33.75 0.5 31.65-0.9 29.55-2.3 28.37-4.8 27.2-7.3 27.2-10.55L27.2-10.55Q27.2-13.8 28.45-16.35 29.7-18.9 32-20.3 34.3-21.7 37.25-21.7L37.25-21.7Q40.75-21.7 42.62-19.63 44.5-17.55 44.55-13.6L44.55-13.6 44.25-13.35 30.75-13.35Q30.65-12.05 30.65-11.3L30.65-11.3Q30.65-6.75 32.5-4.38 34.35-2 37.65-2L37.65-2Q39.35-2 40.92-2.78 42.5-3.55 43.7-5.1L43.7-5.1ZM36.7-21.15Q34.35-21.15 32.8-19.2 31.25-17.25 30.8-13.9L30.8-13.9 40.5-14.25Q40.65-14.85 40.65-16.25L40.65-16.25Q40.65-18.95 39.62-20.05 38.6-21.15 36.7-21.15L36.7-21.15ZM53.55-0.8L53.55-36.05 53.15-36.05 47.35-34.1 47.35-33.75 50.3-32.65 50.3-0.8 47.25-0.4 47.25 0 56.6 0 56.6-0.4 53.55-0.8ZM60.74-28.9Q60.74-29.95 61.42-30.63 62.09-31.3 63.14-31.3L63.14-31.3Q64.19-31.3 64.87-30.63 65.54-29.95 65.54-28.9L65.54-28.9Q65.54-27.85 64.87-27.18 64.19-26.5 63.14-26.5L63.14-26.5Q62.09-26.5 61.42-27.18 60.74-27.85 60.74-28.9L60.74-28.9ZM65.04-0.8L65.04-21.7 64.64-21.7 58.84-19.75 58.84-19.4 61.79-18.3 61.79-0.8 58.74-0.4 58.74 0 68.09 0 68.09-0.4 65.04-0.8ZM76.14-0.4Q78.19 0.5 80.24 0.5L80.24 0.5Q83.19 0.5 85.54-1 87.89-2.5 89.19-5.15 90.49-7.8 90.49-11.2L90.49-11.2Q90.49-14.2 89.49-16.6 88.49-19 86.69-20.35 84.89-21.7 82.69-21.7L82.69-21.7Q80.74-21.7 79.02-20.75 77.29-19.8 76.19-18.15L76.19-18.15 75.99-18.15 75.99-21.7 75.59-21.7 69.94-19.75 69.94-19.4 72.89-18.3 72.89 10.9 69.84 11.3 69.84 11.7 80.64 11.7 80.64 11.35 76.14 10.8 76.14-0.4ZM80.59 0Q78.79 0 77.47-1.05 76.14-2.1 76.14-3.55L76.14-3.55 76.14-17.2Q76.74-18.6 77.99-19.4 79.24-20.2 80.79-20.2L80.79-20.2Q83.54-20.2 85.19-17.55 86.84-14.9 86.84-10.5L86.84-10.5Q86.84-7.5 86.04-5.1 85.24-2.7 83.82-1.35 82.39 0 80.59 0L80.59 0ZM111.04-5.1L111.49-5.7 111.69-5.6 111.49-5.05Q110.49-2.4 108.51-0.95 106.54 0.5 103.79 0.5L103.79 0.5Q101.09 0.5 98.99-0.9 96.89-2.3 95.71-4.8 94.54-7.3 94.54-10.55L94.54-10.55Q94.54-13.8 95.79-16.35 97.04-18.9 99.34-20.3 101.64-21.7 104.59-21.7L104.59-21.7Q108.09-21.7 109.96-19.63 111.84-17.55 111.89-13.6L111.89-13.6 111.59-13.35 98.09-13.35Q97.99-12.05 97.99-11.3L97.99-11.3Q97.99-6.75 99.84-4.38 101.69-2 104.99-2L104.99-2Q106.69-2 108.26-2.78 109.84-3.55 111.04-5.1L111.04-5.1ZM104.04-21.15Q101.69-21.15 100.14-19.2 98.59-17.25 98.14-13.9L98.14-13.9 107.84-14.25Q107.99-14.85 107.99-16.25L107.99-16.25Q107.99-18.95 106.96-20.05 105.94-21.15 104.04-21.15L104.04-21.15Z" opacity="1" transform="matrix(1,0,0,1,0,0)" fill="#233565" class="wordmark-text-0" data-fill-palette-color="primary" id="text-0"></path></svg></g></svg></g></svg></g></svg></g><g></g></svg></g></svg></g></svg></g><defs></defs></svg><rect width="320" height="360" fill="none" stroke="none" visibility="hidden"></rect></g></svg></g></svg>